<mxfile host="app.diagrams.net" agent="Mozilla/5.0 (Windows NT 10.0; Win64; x64) AppleWebKit/537.36 (KHTML, like Gecko) Chrome/140.0.0.0 Safari/537.36 Edg/140.0.0.0" version="28.2.0">
  <diagram name="ページ1" id="WLQHLBcKsI87OxY99YjC">
    <mxGraphModel dx="2392" dy="708" grid="1" gridSize="10" guides="1" tooltips="1" connect="1" arrows="1" fold="1" page="1" pageScale="1" pageWidth="827" pageHeight="1169" math="0" shadow="0">
      <root>
        <mxCell id="0" />
        <mxCell id="1" parent="0" />
        <mxCell id="XIkvF36vBC8NI3gvvS0F-1" value="&lt;span style=&quot;color: rgb(0, 0, 0); font-family: Helvetica; font-size: 18px; font-style: normal; font-variant-ligatures: normal; font-variant-caps: normal; font-weight: 400; letter-spacing: normal; orphans: 2; text-align: center; text-indent: 0px; text-transform: none; widows: 2; word-spacing: 0px; -webkit-text-stroke-width: 0px; white-space: nowrap; background-color: rgb(236, 236, 236); text-decoration-thickness: initial; text-decoration-style: initial; text-decoration-color: initial; display: inline !important; float: none;&quot;&gt;ドメインモデル&lt;/span&gt;" style="text;whiteSpace=wrap;html=1;" vertex="1" parent="1">
          <mxGeometry x="-100" y="40" width="130" height="30" as="geometry" />
        </mxCell>
        <mxCell id="XIkvF36vBC8NI3gvvS0F-2" value="&lt;font style=&quot;font-size: 24px;&quot;&gt;乗り物&lt;/font&gt;" style="html=1;whiteSpace=wrap;" vertex="1" parent="1">
          <mxGeometry x="25" y="110" width="140" height="50" as="geometry" />
        </mxCell>
        <mxCell id="XIkvF36vBC8NI3gvvS0F-3" value="&lt;font style=&quot;font-size: 24px;&quot;&gt;車&lt;/font&gt;" style="html=1;whiteSpace=wrap;" vertex="1" parent="1">
          <mxGeometry x="-75" y="240" width="80" height="70" as="geometry" />
        </mxCell>
        <mxCell id="XIkvF36vBC8NI3gvvS0F-4" value="&lt;font style=&quot;font-size: 24px;&quot;&gt;飛行機&lt;/font&gt;" style="html=1;whiteSpace=wrap;" vertex="1" parent="1">
          <mxGeometry x="175" y="240" width="120" height="65" as="geometry" />
        </mxCell>
        <mxCell id="XIkvF36vBC8NI3gvvS0F-5" value="&lt;font style=&quot;font-size: 24px;&quot;&gt;船&lt;/font&gt;" style="html=1;whiteSpace=wrap;" vertex="1" parent="1">
          <mxGeometry x="55" y="240" width="80" height="70" as="geometry" />
        </mxCell>
        <mxCell id="XIkvF36vBC8NI3gvvS0F-6" value="" style="endArrow=diamondThin;endFill=0;endSize=24;html=1;rounded=0;entryX=0.25;entryY=1;entryDx=0;entryDy=0;exitX=0.5;exitY=0;exitDx=0;exitDy=0;" edge="1" parent="1" source="XIkvF36vBC8NI3gvvS0F-3" target="XIkvF36vBC8NI3gvvS0F-2">
          <mxGeometry width="160" relative="1" as="geometry">
            <mxPoint x="-45" y="230" as="sourcePoint" />
            <mxPoint x="85" y="160" as="targetPoint" />
          </mxGeometry>
        </mxCell>
        <mxCell id="XIkvF36vBC8NI3gvvS0F-8" value="" style="endArrow=diamondThin;endFill=0;endSize=24;html=1;rounded=0;entryX=0.875;entryY=1.001;entryDx=0;entryDy=0;entryPerimeter=0;" edge="1" parent="1" target="XIkvF36vBC8NI3gvvS0F-2">
          <mxGeometry width="160" relative="1" as="geometry">
            <mxPoint x="235.4232933407738" y="240" as="sourcePoint" />
            <mxPoint x="185" y="200" as="targetPoint" />
          </mxGeometry>
        </mxCell>
        <mxCell id="XIkvF36vBC8NI3gvvS0F-9" value="&lt;font style=&quot;font-size: 24px;&quot;&gt;車&lt;/font&gt;" style="html=1;whiteSpace=wrap;" vertex="1" parent="1">
          <mxGeometry x="440" y="110" width="50" height="40" as="geometry" />
        </mxCell>
        <mxCell id="XIkvF36vBC8NI3gvvS0F-10" value="ボディ" style="html=1;whiteSpace=wrap;" vertex="1" parent="1">
          <mxGeometry x="510" y="160" width="50" height="30" as="geometry" />
        </mxCell>
        <mxCell id="XIkvF36vBC8NI3gvvS0F-11" value="ハンドル" style="html=1;whiteSpace=wrap;" vertex="1" parent="1">
          <mxGeometry x="470" y="230" width="60" height="30" as="geometry" />
        </mxCell>
        <mxCell id="XIkvF36vBC8NI3gvvS0F-12" value="ライト" style="html=1;whiteSpace=wrap;" vertex="1" parent="1">
          <mxGeometry x="590" y="230" width="100" height="32.5" as="geometry" />
        </mxCell>
        <mxCell id="XIkvF36vBC8NI3gvvS0F-13" value="" style="endArrow=diamondThin;endFill=0;endSize=24;html=1;rounded=0;exitX=0.5;exitY=0;exitDx=0;exitDy=0;" edge="1" parent="1" source="XIkvF36vBC8NI3gvvS0F-10">
          <mxGeometry width="160" relative="1" as="geometry">
            <mxPoint x="520" y="150" as="sourcePoint" />
            <mxPoint x="490" y="130" as="targetPoint" />
          </mxGeometry>
        </mxCell>
        <mxCell id="XIkvF36vBC8NI3gvvS0F-14" value="" style="endArrow=diamondThin;endFill=0;endSize=24;html=1;rounded=0;exitX=0.5;exitY=0;exitDx=0;exitDy=0;" edge="1" parent="1" source="XIkvF36vBC8NI3gvvS0F-11">
          <mxGeometry width="160" relative="1" as="geometry">
            <mxPoint x="500" y="220" as="sourcePoint" />
            <mxPoint x="530" y="190" as="targetPoint" />
          </mxGeometry>
        </mxCell>
        <mxCell id="XIkvF36vBC8NI3gvvS0F-15" value="" style="endArrow=diamondThin;endFill=0;endSize=24;html=1;rounded=0;exitX=0.5;exitY=0;exitDx=0;exitDy=0;entryX=1;entryY=0.75;entryDx=0;entryDy=0;" edge="1" parent="1" source="XIkvF36vBC8NI3gvvS0F-12" target="XIkvF36vBC8NI3gvvS0F-10">
          <mxGeometry width="160" relative="1" as="geometry">
            <mxPoint x="590" y="220" as="sourcePoint" />
            <mxPoint x="545" y="190" as="targetPoint" />
          </mxGeometry>
        </mxCell>
        <mxCell id="XIkvF36vBC8NI3gvvS0F-16" value="エンジン" style="html=1;whiteSpace=wrap;" vertex="1" parent="1">
          <mxGeometry x="370" y="197.5" width="70" height="32.5" as="geometry" />
        </mxCell>
        <mxCell id="XIkvF36vBC8NI3gvvS0F-17" value="" style="endArrow=diamondThin;endFill=0;endSize=24;html=1;rounded=0;exitX=0.5;exitY=0;exitDx=0;exitDy=0;entryX=0;entryY=1;entryDx=0;entryDy=0;" edge="1" parent="1" target="XIkvF36vBC8NI3gvvS0F-9">
          <mxGeometry width="160" relative="1" as="geometry">
            <mxPoint x="405" y="197.5" as="sourcePoint" />
            <mxPoint x="440" y="157.5" as="targetPoint" />
          </mxGeometry>
        </mxCell>
        <mxCell id="XIkvF36vBC8NI3gvvS0F-18" value="&lt;font style=&quot;font-size: 18px;&quot;&gt;必要事項&lt;/font&gt;" style="html=1;whiteSpace=wrap;" vertex="1" parent="1">
          <mxGeometry x="-170" y="520" width="110" height="50" as="geometry" />
        </mxCell>
        <mxCell id="XIkvF36vBC8NI3gvvS0F-19" value="&lt;font style=&quot;font-size: 18px;&quot;&gt;貸し出し予約&lt;/font&gt;" style="html=1;whiteSpace=wrap;" vertex="1" parent="1">
          <mxGeometry x="25" y="520" width="110" height="50" as="geometry" />
        </mxCell>
        <mxCell id="XIkvF36vBC8NI3gvvS0F-20" value="&lt;font style=&quot;font-size: 18px;&quot;&gt;利用者&lt;/font&gt;" style="html=1;whiteSpace=wrap;" vertex="1" parent="1">
          <mxGeometry x="135" y="620" width="110" height="50" as="geometry" />
        </mxCell>
        <mxCell id="XIkvF36vBC8NI3gvvS0F-21" value="" style="endArrow=diamondThin;endFill=0;endSize=24;html=1;rounded=0;entryX=0;entryY=0.5;entryDx=0;entryDy=0;exitX=1;exitY=0.5;exitDx=0;exitDy=0;" edge="1" parent="1" source="XIkvF36vBC8NI3gvvS0F-18" target="XIkvF36vBC8NI3gvvS0F-19">
          <mxGeometry width="160" relative="1" as="geometry">
            <mxPoint x="-45" y="544.09" as="sourcePoint" />
            <mxPoint x="65" y="544.09" as="targetPoint" />
          </mxGeometry>
        </mxCell>
        <mxCell id="XIkvF36vBC8NI3gvvS0F-23" value="&lt;font style=&quot;font-size: 18px;&quot;&gt;連絡を受ける&lt;/font&gt;" style="text;html=1;align=center;verticalAlign=middle;resizable=0;points=[];autosize=1;strokeColor=none;fillColor=none;" vertex="1" parent="1">
          <mxGeometry x="-15" y="583" width="130" height="40" as="geometry" />
        </mxCell>
        <mxCell id="XIkvF36vBC8NI3gvvS0F-24" value="&lt;span style=&quot;font-size: 18px;&quot;&gt;借りている本&lt;/span&gt;" style="html=1;whiteSpace=wrap;" vertex="1" parent="1">
          <mxGeometry x="-150" y="750" width="110" height="50" as="geometry" />
        </mxCell>
        <mxCell id="XIkvF36vBC8NI3gvvS0F-25" value="&lt;span style=&quot;font-size: 18px;&quot;&gt;図書カード&lt;/span&gt;" style="html=1;whiteSpace=wrap;" vertex="1" parent="1">
          <mxGeometry x="135" y="750" width="110" height="50" as="geometry" />
        </mxCell>
        <mxCell id="XIkvF36vBC8NI3gvvS0F-26" value="&lt;span style=&quot;font-size: 18px;&quot;&gt;著者&lt;/span&gt;" style="html=1;whiteSpace=wrap;" vertex="1" parent="1">
          <mxGeometry x="470" y="730" width="110" height="50" as="geometry" />
        </mxCell>
        <mxCell id="XIkvF36vBC8NI3gvvS0F-27" value="&lt;font style=&quot;font-size: 12px;&quot;&gt;どこの棚にあるか&lt;/font&gt;" style="html=1;whiteSpace=wrap;" vertex="1" parent="1">
          <mxGeometry x="580" y="730" width="110" height="50" as="geometry" />
        </mxCell>
        <mxCell id="XIkvF36vBC8NI3gvvS0F-28" value="&lt;span style=&quot;font-size: 18px;&quot;&gt;書名&lt;/span&gt;" style="html=1;whiteSpace=wrap;" vertex="1" parent="1">
          <mxGeometry x="360" y="730" width="110" height="50" as="geometry" />
        </mxCell>
        <mxCell id="XIkvF36vBC8NI3gvvS0F-29" value="&lt;span style=&quot;font-size: 18px;&quot;&gt;貸し出し中か&lt;/span&gt;" style="html=1;whiteSpace=wrap;" vertex="1" parent="1">
          <mxGeometry x="690" y="730" width="110" height="50" as="geometry" />
        </mxCell>
        <mxCell id="XIkvF36vBC8NI3gvvS0F-30" value="&lt;font style=&quot;font-size: 24px;&quot;&gt;図書&lt;/font&gt;" style="html=1;whiteSpace=wrap;" vertex="1" parent="1">
          <mxGeometry x="350" y="620" width="110" height="50" as="geometry" />
        </mxCell>
        <mxCell id="XIkvF36vBC8NI3gvvS0F-36" value="" style="endArrow=none;html=1;rounded=0;exitX=0.5;exitY=0;exitDx=0;exitDy=0;" edge="1" parent="1" source="XIkvF36vBC8NI3gvvS0F-20">
          <mxGeometry width="50" height="50" relative="1" as="geometry">
            <mxPoint x="160" y="630" as="sourcePoint" />
            <mxPoint x="110" y="570" as="targetPoint" />
          </mxGeometry>
        </mxCell>
        <mxCell id="XIkvF36vBC8NI3gvvS0F-37" value="" style="endArrow=none;html=1;rounded=0;exitX=0;exitY=0.5;exitDx=0;exitDy=0;entryX=1;entryY=0.5;entryDx=0;entryDy=0;" edge="1" parent="1" source="XIkvF36vBC8NI3gvvS0F-30" target="XIkvF36vBC8NI3gvvS0F-20">
          <mxGeometry width="50" height="50" relative="1" as="geometry">
            <mxPoint x="330" y="650" as="sourcePoint" />
            <mxPoint x="245" y="644.38" as="targetPoint" />
          </mxGeometry>
        </mxCell>
        <mxCell id="XIkvF36vBC8NI3gvvS0F-39" value="" style="endArrow=diamondThin;endFill=0;endSize=24;html=1;rounded=0;exitX=0.481;exitY=0.026;exitDx=0;exitDy=0;exitPerimeter=0;" edge="1" parent="1" source="XIkvF36vBC8NI3gvvS0F-28">
          <mxGeometry width="160" relative="1" as="geometry">
            <mxPoint x="413" y="720" as="sourcePoint" />
            <mxPoint x="413" y="670" as="targetPoint" />
          </mxGeometry>
        </mxCell>
        <mxCell id="XIkvF36vBC8NI3gvvS0F-41" value="" style="endArrow=diamondThin;endFill=0;endSize=24;html=1;rounded=0;entryX=0;entryY=0.5;entryDx=0;entryDy=0;exitX=0.5;exitY=0;exitDx=0;exitDy=0;" edge="1" parent="1" source="XIkvF36vBC8NI3gvvS0F-27">
          <mxGeometry width="160" relative="1" as="geometry">
            <mxPoint x="540" y="719.09" as="sourcePoint" />
            <mxPoint x="460" y="670" as="targetPoint" />
          </mxGeometry>
        </mxCell>
        <mxCell id="XIkvF36vBC8NI3gvvS0F-43" value="" style="endArrow=diamondThin;endFill=0;endSize=24;html=1;rounded=0;entryX=0.839;entryY=1.027;entryDx=0;entryDy=0;entryPerimeter=0;exitX=0.5;exitY=0;exitDx=0;exitDy=0;" edge="1" parent="1" source="XIkvF36vBC8NI3gvvS0F-26" target="XIkvF36vBC8NI3gvvS0F-30">
          <mxGeometry width="160" relative="1" as="geometry">
            <mxPoint x="530" y="725.45" as="sourcePoint" />
            <mxPoint x="455" y="680" as="targetPoint" />
          </mxGeometry>
        </mxCell>
        <mxCell id="XIkvF36vBC8NI3gvvS0F-44" value="" style="endArrow=diamondThin;endFill=0;endSize=24;html=1;rounded=0;exitX=0.636;exitY=0;exitDx=0;exitDy=0;exitPerimeter=0;" edge="1" parent="1" source="XIkvF36vBC8NI3gvvS0F-29">
          <mxGeometry width="160" relative="1" as="geometry">
            <mxPoint x="535" y="685.45" as="sourcePoint" />
            <mxPoint x="460" y="640" as="targetPoint" />
          </mxGeometry>
        </mxCell>
        <mxCell id="XIkvF36vBC8NI3gvvS0F-45" value="" style="endArrow=diamondThin;endFill=0;endSize=24;html=1;rounded=0;entryX=0.5;entryY=1;entryDx=0;entryDy=0;exitX=0.5;exitY=0;exitDx=0;exitDy=0;" edge="1" parent="1" source="XIkvF36vBC8NI3gvvS0F-25" target="XIkvF36vBC8NI3gvvS0F-20">
          <mxGeometry width="160" relative="1" as="geometry">
            <mxPoint x="189.33" y="780" as="sourcePoint" />
            <mxPoint x="189.33" y="680" as="targetPoint" />
          </mxGeometry>
        </mxCell>
        <mxCell id="XIkvF36vBC8NI3gvvS0F-46" value="&lt;span style=&quot;font-size: 18px;&quot;&gt;氏名&lt;/span&gt;&lt;div&gt;&lt;span style=&quot;font-size: 18px;&quot;&gt;&lt;br&gt;&lt;/span&gt;&lt;/div&gt;" style="html=1;whiteSpace=wrap;" vertex="1" parent="1">
          <mxGeometry x="60" y="870" width="100" height="50" as="geometry" />
        </mxCell>
        <mxCell id="XIkvF36vBC8NI3gvvS0F-47" value="&lt;font style=&quot;font-size: 18px;&quot;&gt;住所&lt;/font&gt;&lt;div&gt;&lt;font style=&quot;font-size: 14px;&quot;&gt;&lt;br&gt;&lt;/font&gt;&lt;/div&gt;" style="html=1;whiteSpace=wrap;" vertex="1" parent="1">
          <mxGeometry x="160" y="870" width="100" height="50" as="geometry" />
        </mxCell>
        <mxCell id="XIkvF36vBC8NI3gvvS0F-48" value="&lt;span style=&quot;font-size: 18px;&quot;&gt;電話番号&lt;/span&gt;&lt;div&gt;&lt;span style=&quot;font-size: 18px;&quot;&gt;&lt;br&gt;&lt;/span&gt;&lt;/div&gt;" style="html=1;whiteSpace=wrap;" vertex="1" parent="1">
          <mxGeometry x="260" y="870" width="100" height="50" as="geometry" />
        </mxCell>
        <mxCell id="XIkvF36vBC8NI3gvvS0F-49" value="&lt;font style=&quot;font-size: 12px;&quot;&gt;電子メールアドレス&lt;/font&gt;" style="html=1;whiteSpace=wrap;" vertex="1" parent="1">
          <mxGeometry x="360" y="870" width="110" height="50" as="geometry" />
        </mxCell>
        <mxCell id="XIkvF36vBC8NI3gvvS0F-50" value="&lt;span style=&quot;font-size: 18px;&quot;&gt;ID&lt;/span&gt;" style="html=1;whiteSpace=wrap;" vertex="1" parent="1">
          <mxGeometry x="470" y="870" width="100" height="50" as="geometry" />
        </mxCell>
        <mxCell id="XIkvF36vBC8NI3gvvS0F-51" value="" style="endArrow=diamondThin;endFill=0;endSize=24;html=1;rounded=0;entryX=0;entryY=0.5;entryDx=0;entryDy=0;" edge="1" parent="1" target="XIkvF36vBC8NI3gvvS0F-25">
          <mxGeometry width="160" relative="1" as="geometry">
            <mxPoint x="-40" y="774.55" as="sourcePoint" />
            <mxPoint x="30" y="775.4599999999999" as="targetPoint" />
          </mxGeometry>
        </mxCell>
        <mxCell id="XIkvF36vBC8NI3gvvS0F-52" value="&lt;span style=&quot;font-size: 18px;&quot;&gt;パスワード&lt;/span&gt;" style="html=1;whiteSpace=wrap;" vertex="1" parent="1">
          <mxGeometry x="570" y="870" width="120" height="50" as="geometry" />
        </mxCell>
        <mxCell id="XIkvF36vBC8NI3gvvS0F-53" value="&lt;font style=&quot;font-size: 12px;&quot;&gt;あと何冊借りることが&lt;/font&gt;&lt;div&gt;&lt;font style=&quot;font-size: 12px;&quot;&gt;できるか&lt;/font&gt;&lt;/div&gt;" style="html=1;whiteSpace=wrap;" vertex="1" parent="1">
          <mxGeometry x="690" y="870" width="130" height="50" as="geometry" />
        </mxCell>
        <mxCell id="XIkvF36vBC8NI3gvvS0F-54" value="" style="endArrow=diamondThin;endFill=0;endSize=24;html=1;rounded=0;entryX=0.329;entryY=1.112;entryDx=0;entryDy=0;entryPerimeter=0;exitX=0.5;exitY=0;exitDx=0;exitDy=0;" edge="1" parent="1" source="XIkvF36vBC8NI3gvvS0F-46" target="XIkvF36vBC8NI3gvvS0F-25">
          <mxGeometry width="160" relative="1" as="geometry">
            <mxPoint x="100" y="870" as="sourcePoint" />
            <mxPoint x="160" y="810" as="targetPoint" />
          </mxGeometry>
        </mxCell>
        <mxCell id="XIkvF36vBC8NI3gvvS0F-56" value="" style="endArrow=diamondThin;endFill=0;endSize=24;html=1;rounded=0;exitX=0.5;exitY=0;exitDx=0;exitDy=0;entryX=0.682;entryY=1;entryDx=0;entryDy=0;entryPerimeter=0;" edge="1" parent="1" source="XIkvF36vBC8NI3gvvS0F-47" target="XIkvF36vBC8NI3gvvS0F-25">
          <mxGeometry width="160" relative="1" as="geometry">
            <mxPoint x="210.08" y="870" as="sourcePoint" />
            <mxPoint x="209.91" y="810" as="targetPoint" />
          </mxGeometry>
        </mxCell>
        <mxCell id="XIkvF36vBC8NI3gvvS0F-57" value="" style="endArrow=diamondThin;endFill=0;endSize=24;html=1;rounded=0;exitX=0.5;exitY=0;exitDx=0;exitDy=0;entryX=1;entryY=0.25;entryDx=0;entryDy=0;" edge="1" parent="1" source="XIkvF36vBC8NI3gvvS0F-53" target="XIkvF36vBC8NI3gvvS0F-25">
          <mxGeometry width="160" relative="1" as="geometry">
            <mxPoint x="685" y="860" as="sourcePoint" />
            <mxPoint x="385" y="770" as="targetPoint" />
          </mxGeometry>
        </mxCell>
        <mxCell id="XIkvF36vBC8NI3gvvS0F-58" value="" style="endArrow=diamondThin;endFill=0;endSize=24;html=1;rounded=0;exitX=0.5;exitY=0;exitDx=0;exitDy=0;entryX=1;entryY=0.75;entryDx=0;entryDy=0;" edge="1" parent="1" source="XIkvF36vBC8NI3gvvS0F-50" target="XIkvF36vBC8NI3gvvS0F-25">
          <mxGeometry width="160" relative="1" as="geometry">
            <mxPoint x="563" y="878.7" as="sourcePoint" />
            <mxPoint x="263" y="809.9999999999999" as="targetPoint" />
          </mxGeometry>
        </mxCell>
        <mxCell id="XIkvF36vBC8NI3gvvS0F-59" value="" style="endArrow=diamondThin;endFill=0;endSize=24;html=1;rounded=0;entryX=1;entryY=0.5;entryDx=0;entryDy=0;exitX=0.5;exitY=0;exitDx=0;exitDy=0;" edge="1" parent="1" source="XIkvF36vBC8NI3gvvS0F-52" target="XIkvF36vBC8NI3gvvS0F-25">
          <mxGeometry width="160" relative="1" as="geometry">
            <mxPoint x="595" y="860" as="sourcePoint" />
            <mxPoint x="420" y="800" as="targetPoint" />
          </mxGeometry>
        </mxCell>
        <mxCell id="XIkvF36vBC8NI3gvvS0F-61" value="" style="endArrow=diamondThin;endFill=0;endSize=24;html=1;rounded=0;exitX=0.5;exitY=0;exitDx=0;exitDy=0;entryX=1;entryY=1;entryDx=0;entryDy=0;" edge="1" parent="1" source="XIkvF36vBC8NI3gvvS0F-49" target="XIkvF36vBC8NI3gvvS0F-25">
          <mxGeometry width="160" relative="1" as="geometry">
            <mxPoint x="410" y="860" as="sourcePoint" />
            <mxPoint x="250" y="820" as="targetPoint" />
          </mxGeometry>
        </mxCell>
        <mxCell id="XIkvF36vBC8NI3gvvS0F-62" value="" style="endArrow=diamondThin;endFill=0;endSize=24;html=1;rounded=0;exitX=0.5;exitY=0;exitDx=0;exitDy=0;entryX=0.75;entryY=1;entryDx=0;entryDy=0;" edge="1" parent="1" source="XIkvF36vBC8NI3gvvS0F-48" target="XIkvF36vBC8NI3gvvS0F-25">
          <mxGeometry width="160" relative="1" as="geometry">
            <mxPoint x="360" y="850" as="sourcePoint" />
            <mxPoint x="120" y="790" as="targetPoint" />
          </mxGeometry>
        </mxCell>
        <mxCell id="XIkvF36vBC8NI3gvvS0F-63" value="&lt;font style=&quot;font-size: 18px;&quot;&gt;書名&lt;/font&gt;" style="html=1;whiteSpace=wrap;" vertex="1" parent="1">
          <mxGeometry x="-300" y="860" width="90" height="40" as="geometry" />
        </mxCell>
        <mxCell id="XIkvF36vBC8NI3gvvS0F-64" value="&lt;font style=&quot;font-size: 18px;&quot;&gt;著者&lt;/font&gt;" style="html=1;whiteSpace=wrap;" vertex="1" parent="1">
          <mxGeometry x="-210" y="860" width="90" height="40" as="geometry" />
        </mxCell>
        <mxCell id="XIkvF36vBC8NI3gvvS0F-65" value="&lt;font style=&quot;font-size: 18px;&quot;&gt;※本のID&lt;/font&gt;" style="html=1;whiteSpace=wrap;" vertex="1" parent="1">
          <mxGeometry x="-300" y="900" width="90" height="40" as="geometry" />
        </mxCell>
        <mxCell id="XIkvF36vBC8NI3gvvS0F-66" value="&lt;font style=&quot;font-size: 14px;&quot;&gt;貸し出し期限&lt;/font&gt;" style="html=1;whiteSpace=wrap;" vertex="1" parent="1">
          <mxGeometry x="-120" y="860" width="90" height="40" as="geometry" />
        </mxCell>
        <mxCell id="XIkvF36vBC8NI3gvvS0F-67" value="" style="endArrow=diamondThin;endFill=0;endSize=24;html=1;rounded=0;entryX=0.25;entryY=1;entryDx=0;entryDy=0;exitX=0.5;exitY=0;exitDx=0;exitDy=0;" edge="1" parent="1" source="XIkvF36vBC8NI3gvvS0F-64" target="XIkvF36vBC8NI3gvvS0F-24">
          <mxGeometry width="160" relative="1" as="geometry">
            <mxPoint x="-160" y="900.0033333333332" as="sourcePoint" />
            <mxPoint x="-160" y="804.67" as="targetPoint" />
          </mxGeometry>
        </mxCell>
        <mxCell id="XIkvF36vBC8NI3gvvS0F-68" value="" style="endArrow=diamondThin;endFill=0;endSize=24;html=1;rounded=0;entryX=0;entryY=0.5;entryDx=0;entryDy=0;exitX=0.5;exitY=0;exitDx=0;exitDy=0;" edge="1" parent="1" source="XIkvF36vBC8NI3gvvS0F-63" target="XIkvF36vBC8NI3gvvS0F-24">
          <mxGeometry width="160" relative="1" as="geometry">
            <mxPoint x="-320" y="865" as="sourcePoint" />
            <mxPoint x="-240" y="685" as="targetPoint" />
          </mxGeometry>
        </mxCell>
        <mxCell id="XIkvF36vBC8NI3gvvS0F-70" value="検索、借りる" style="text;html=1;align=center;verticalAlign=middle;resizable=0;points=[];autosize=1;strokeColor=none;fillColor=none;" vertex="1" parent="1">
          <mxGeometry x="245" y="610" width="100" height="30" as="geometry" />
        </mxCell>
        <mxCell id="XIkvF36vBC8NI3gvvS0F-71" value="&lt;font style=&quot;font-size: 14px;&quot;&gt;・図書　has a 書名&lt;/font&gt;&lt;div&gt;&lt;font size=&quot;3&quot;&gt;・図書 has a 著者&lt;/font&gt;&lt;/div&gt;&lt;div&gt;&lt;font size=&quot;3&quot;&gt;・図書 has a 貸し出し中か&lt;/font&gt;&lt;/div&gt;&lt;div&gt;&lt;font size=&quot;3&quot;&gt;・図書 has a どこの棚にあるか&lt;/font&gt;&lt;/div&gt;" style="text;html=1;align=center;verticalAlign=middle;resizable=0;points=[];autosize=1;strokeColor=none;fillColor=none;" vertex="1" parent="1">
          <mxGeometry x="430" y="530" width="250" height="90" as="geometry" />
        </mxCell>
        <mxCell id="XIkvF36vBC8NI3gvvS0F-72" value="集約:&amp;nbsp; has a 関係" style="text;html=1;align=center;verticalAlign=middle;resizable=0;points=[];autosize=1;strokeColor=none;fillColor=none;" vertex="1" parent="1">
          <mxGeometry x="375" y="78" width="110" height="30" as="geometry" />
        </mxCell>
        <mxCell id="XIkvF36vBC8NI3gvvS0F-73" value="汎化 : is a 関係" style="text;html=1;align=center;verticalAlign=middle;resizable=0;points=[];autosize=1;strokeColor=none;fillColor=none;" vertex="1" parent="1">
          <mxGeometry x="-60" y="70" width="100" height="30" as="geometry" />
        </mxCell>
        <mxCell id="XIkvF36vBC8NI3gvvS0F-74" value="" style="endArrow=diamondThin;endFill=0;endSize=24;html=1;rounded=0;entryX=0.5;entryY=1;entryDx=0;entryDy=0;exitX=0.5;exitY=0;exitDx=0;exitDy=0;" edge="1" parent="1" source="XIkvF36vBC8NI3gvvS0F-5" target="XIkvF36vBC8NI3gvvS0F-2">
          <mxGeometry width="160" relative="1" as="geometry">
            <mxPoint x="95" y="210" as="sourcePoint" />
            <mxPoint x="94.64" y="172.8" as="targetPoint" />
          </mxGeometry>
        </mxCell>
        <mxCell id="XIkvF36vBC8NI3gvvS0F-75" value="" style="endArrow=diamondThin;endFill=0;endSize=24;html=1;rounded=0;entryX=0.75;entryY=1;entryDx=0;entryDy=0;exitX=0.75;exitY=0;exitDx=0;exitDy=0;" edge="1" parent="1" source="XIkvF36vBC8NI3gvvS0F-66" target="XIkvF36vBC8NI3gvvS0F-24">
          <mxGeometry width="160" relative="1" as="geometry">
            <mxPoint x="-79.99999999999997" y="860.0000000000001" as="sourcePoint" />
            <mxPoint x="-79.47" y="801.1200000000001" as="targetPoint" />
          </mxGeometry>
        </mxCell>
      </root>
    </mxGraphModel>
  </diagram>
</mxfile>
